<svg xmlns="http://www.w3.org/2000/svg" aria-hidden="true" style="position:absolute;width:0;height:0;overflow:hidden">
  <defs>
    <symbol id="icon-twitter" viewBox="0 0 32 32">
      <path
        d="M21.9 3.5a6.946 6.946 0 0 0-6.94 6.94c0 .23.057.455.08.68-4.732-.453-8.918-2.732-11.76-6.22a.638.638 0 0 0-1.06.08 6.879 6.879 0 0 0-.94 3.48c0 1.537.55 2.945 1.4 4.1-.165-.072-.345-.113-.5-.2-.198-.105-.435-.1-.627.015s-.31.322-.313.545V13c0 2.357 1.22 4.405 3.02 5.66-.02-.003-.04.005-.06 0a.64.64 0 0 0-.72.82c.715 2.223 2.54 3.92 4.8 4.54-1.8 1.07-3.888 1.7-6.14 1.7-.488 0-.955-.025-1.42-.08a.64.64 0 0 0-.42 1.18 18.463 18.463 0 0 0 10 2.94c5.973 0 10.657-2.495 13.8-6.06s4.78-8.195 4.78-12.52c0-.182-.015-.36-.02-.54 1.172-.898 2.22-1.95 3.04-3.18a.637.637 0 0 0-.043-.775.638.638 0 0 0-.758-.165c-.33.147-.715.162-1.06.28.455-.607.845-1.263 1.08-2a.64.64 0 0 0-.94-.74 11.993 11.993 0 0 1-3.58 1.38c-1.24-1.16-2.872-1.94-4.7-1.94zm0 1.28c1.633 0 3.108.697 4.14 1.8.155.16.383.228.6.18a13.121 13.121 0 0 0 2.4-.72 5.705 5.705 0 0 1-1.64 1.5.64.64 0 0 0 .419 1.2c.64-.078 1.21-.338 1.82-.5a12.212 12.212 0 0 1-1.8 1.6.639.639 0 0 0-.26.56c.01.26.02.518.02.78 0 4-1.535 8.343-4.46 11.66s-7.22 5.64-12.84 5.64c-2.553 0-4.963-.565-7.14-1.56 2.7-.207 5.19-1.163 7.2-2.74a.642.642 0 0 0-.381-1.141c-2.11-.038-3.877-1.265-4.82-3h.1c.633 0 1.258-.08 1.84-.24.28-.082.473-.343.463-.635s-.218-.543-.502-.605c-2.277-.46-3.985-2.315-4.38-4.62.645.223 1.305.398 2.02.42a.64.64 0 0 0 .379-1.181 5.668 5.668 0 0 1-2.52-4.72c0-.73.19-1.4.44-2.04 3.2 3.513 7.68 5.845 12.74 6.1a.64.64 0 0 0 .66-.78 5.684 5.684 0 0 1-.16-1.3 5.648 5.648 0 0 1 5.66-5.66z" />
    </symbol>
    <symbol id="icon-facebook" viewBox="0 0 32 32">
      <path
        d="M 16 0 C 11.654 1.8503717e-17 11.110297 0.016703125 9.4042969 0.095703125 L 9.4023438 0.095703125 C 7.7003437 0.17370312 6.5355781 0.44584375 5.5175781 0.83984375 A 7.843 7.843 0 0 0 2.6855469 2.6855469 A 7.854 7.854 0 0 0 0.83984375 5.5175781 C 0.44584375 6.5365781 0.17270312 7.6992969 0.095703125 9.4042969 C 0.018703125 11.109297 0 11.654 0 16 C 1.8503717e-17 20.345 0.016703125 20.888656 0.095703125 22.597656 C 0.17370312 24.299656 0.44584375 25.464422 0.83984375 26.482422 A 7.846 7.846 0 0 0 2.6855469 29.314453 A 7.85 7.85 0 0 0 5.5195312 31.158203 C 6.5385312 31.554203 7.7022969 31.827297 9.4042969 31.904297 C 11.110297 31.981297 11.654 32 16 32 C 20.346 32 20.889656 31.983297 22.597656 31.904297 C 24.299656 31.825297 25.464422 31.554203 26.482422 31.158203 A 7.832 7.832 0 0 0 29.314453 29.314453 A 7.85 7.85 0 0 0 31.158203 26.480469 C 31.554203 25.461469 31.827297 24.297703 31.904297 22.595703 C 31.981297 20.889703 32 20.346 32 16 C 32 11.655 31.983297 11.111344 31.904297 9.4023438 C 31.825297 7.7003437 31.554203 6.5355781 31.158203 5.5175781 A 7.803 7.803 0 0 0 29.314453 2.6855469 A 7.88 7.88 0 0 0 26.482422 0.83984375 C 25.463422 0.44584375 24.300703 0.17270312 22.595703 0.095703125 C 20.890703 0.018703125 20.346 0 16 0 z M 16 2.8828125 C 20.272 2.8828125 20.777844 2.8995625 22.464844 2.9765625 C 24.025844 3.0475625 24.8735 3.3073437 25.4375 3.5273438 A 4.974 4.974 0 0 1 27.277344 4.7226562 A 4.972 4.972 0 0 1 28.472656 6.5625 C 28.691656 7.1275 28.952437 7.9741563 29.023438 9.5351562 C 29.100438 11.222156 29.117188 11.728 29.117188 16 C 29.117188 20.272 29.100438 20.777844 29.023438 22.464844 C 28.952438 24.025844 28.692656 24.8735 28.472656 25.4375 A 4.962 4.962 0 0 1 27.277344 27.277344 A 4.972 4.972 0 0 1 25.4375 28.472656 C 24.8725 28.691656 24.025844 28.952437 22.464844 29.023438 C 20.777844 29.100438 20.273 29.117188 16 29.117188 C 11.727 29.117188 11.222156 29.100437 9.5351562 29.023438 C 7.9741562 28.952438 7.1265 28.692656 6.5625 28.472656 C 5.8685 28.216656 5.2386563 27.808344 4.7226562 27.277344 A 4.962 4.962 0 0 1 3.5273438 25.4375 C 3.3083437 24.8725 3.0475625 24.025844 2.9765625 22.464844 C 2.8995625 20.777844 2.8828125 20.272 2.8828125 16 C 2.8828125 11.728 2.8995625 11.222156 2.9765625 9.5351562 C 3.0475625 7.9741562 3.3073437 7.1265 3.5273438 6.5625 A 4.966 4.966 0 0 1 4.7226562 4.7226562 A 4.972 4.972 0 0 1 6.5625 3.5273438 C 7.1275 3.3083437 7.9741563 3.0475625 9.5351562 2.9765625 C 11.222156 2.8995625 11.728 2.8828125 16 2.8828125 z " />
      <path
        d="m 17.719815,17.248744 h 2.894883 l 0.544744,-3.612278 h -3.439627 v -2.336745 c 0,-0.988279 0.480744,-1.9497673 2.021208,-1.9497673 h 1.564279 v -3.072 A 18.946977,18.946977 0 0 0 18.530977,6.0338606 c -2.827907,0 -4.685395,1.7280001 -4.685395,4.8565584 v 2.746047 h -3.150884 v 3.607813 h 3.150884 v 8.72186 h 3.869766 z" />
    </symbol>

    <symbol id="icon-chocolate" viewBox="0 0 32 32">
      <path fill="#000" style="fill: var(--color1, #000)"
        d="M13.822 2.413l7.527 7.536 0.080-0.080c0.158-0.154 0.369-0.242 0.589-0.244s0.434 0.080 0.595 0.231l0.873 0.873c0.305 0.305 0.315 0.77 0.083 1.094l-0.004 0.007-0.143 0.192 6.16 6.16c0.55 0.55 0.55 1.43 0 1.98l-9.43 9.43c-0.55 0.55-1.43 0.55-1.98 0l-4.447-4.447c-0.074 0.093-0.167 0.169-0.272 0.224s-0.221 0.086-0.34 0.093c-0.119 0.007-0.237-0.012-0.348-0.054s-0.212-0.108-0.296-0.192l-2.6-2.6c-0.154-0.158-0.242-0.369-0.244-0.589s0.080-0.434 0.231-0.595l0.006-0.007 0.077-0.076-7.527-7.527c-0.55-0.55-0.55-1.43 0-1.98l9.43-9.43c0.55-0.55 1.43-0.55 1.98 0v0.001zM20.404 10.893l-1.756-1.755c-0.055-0.057-0.121-0.102-0.194-0.133s-0.151-0.047-0.231-0.047c-0.079 0-0.158 0.016-0.231 0.047s-0.139 0.076-0.194 0.133l-3.58 3.58c-0.057 0.056-0.102 0.123-0.132 0.197s-0.047 0.153-0.047 0.233 0.016 0.159 0.047 0.233c0.031 0.074 0.076 0.141 0.132 0.197l1.749 1.749 0.61-0.61-1.565-1.565 3.21-3.22 1.569 1.574 0.613-0.613zM15.328 15.965l-1.754-1.754c-0.055-0.057-0.121-0.102-0.194-0.133s-0.152-0.047-0.231-0.047c-0.079 0-0.158 0.016-0.231 0.047s-0.139 0.076-0.194 0.133l-3.59 3.59c-0.24 0.23-0.24 0.61 0 0.85l1.752 1.752 0.616-0.616-1.57-1.564 3.22-3.21 1.564 1.563 0.612-0.611zM8.822 8.193l3.58 3.58c0.24 0.24 0.62 0.24 0.85-0.010l3.58-3.58c0.057-0.054 0.102-0.119 0.133-0.192s0.047-0.15 0.047-0.228h0.010c0-0.15-0.060-0.31-0.18-0.43l-3.58-3.58c-0.056-0.057-0.123-0.102-0.197-0.133s-0.153-0.047-0.233-0.047c-0.080 0-0.159 0.016-0.233 0.047s-0.141 0.076-0.197 0.133l-3.58 3.59c-0.24 0.23-0.24 0.61 0 0.85zM3.752 13.263l3.58 3.58c0.24 0.24 0.62 0.24 0.85 0l3.58-3.58c0.058-0.055 0.104-0.122 0.135-0.196s0.046-0.154 0.045-0.234h0.010c0-0.16-0.060-0.31-0.18-0.43l-3.58-3.58c-0.055-0.057-0.121-0.102-0.194-0.133s-0.151-0.047-0.231-0.047c-0.079 0-0.158 0.016-0.231 0.047s-0.139 0.076-0.194 0.133l-3.59 3.59c-0.24 0.23-0.24 0.61 0 0.85zM10.685 22.017l2.362 2.363 9.636-13.040-0.655-0.655-11.343 11.332z">
      </path>
      <path fill="#fd9222" style="fill: var(--color2, #fd9222)"
        d="M13.822 2.413l7.527 7.536 0.080-0.080c0.158-0.154 0.369-0.242 0.589-0.244s0.434 0.080 0.595 0.231l0.873 0.873c0.305 0.305 0.315 0.77 0.083 1.094l-0.004 0.007-0.143 0.192 6.16 6.16c0.55 0.55 0.55 1.43 0 1.98l-9.43 9.43c-0.55 0.55-1.43 0.55-1.98 0l-4.447-4.447c-0.074 0.093-0.167 0.169-0.272 0.224s-0.221 0.086-0.34 0.093c-0.119 0.007-0.237-0.012-0.348-0.054s-0.212-0.108-0.296-0.192l-2.6-2.6c-0.154-0.158-0.242-0.369-0.244-0.589s0.080-0.434 0.231-0.595l0.006-0.007 0.077-0.076-7.527-7.527c-0.55-0.55-0.55-1.43 0-1.98l9.43-9.43c0.55-0.55 1.43-0.55 1.98 0v0.001zM20.404 10.893l-1.756-1.755c-0.055-0.057-0.121-0.102-0.194-0.133s-0.151-0.047-0.231-0.047c-0.079 0-0.158 0.016-0.231 0.047s-0.139 0.076-0.194 0.133l-3.58 3.58c-0.057 0.056-0.102 0.123-0.132 0.197s-0.047 0.153-0.047 0.233 0.016 0.159 0.047 0.233c0.031 0.074 0.076 0.141 0.132 0.197l1.749 1.749 0.61-0.61-1.565-1.565 3.21-3.22 1.569 1.574 0.613-0.613zM15.328 15.965l-1.754-1.754c-0.055-0.057-0.121-0.102-0.194-0.133s-0.152-0.047-0.231-0.047c-0.079 0-0.158 0.016-0.231 0.047s-0.139 0.076-0.194 0.133l-3.59 3.59c-0.24 0.23-0.24 0.61 0 0.85l1.752 1.752 0.616-0.616-1.57-1.564 3.22-3.21 1.564 1.563 0.612-0.611zM8.822 8.193l3.58 3.58c0.24 0.24 0.62 0.24 0.85-0.010l3.58-3.58c0.057-0.054 0.102-0.119 0.133-0.192s0.047-0.15 0.047-0.228h0.010c0-0.15-0.060-0.31-0.18-0.43l-3.58-3.58c-0.056-0.057-0.123-0.102-0.197-0.133s-0.153-0.047-0.233-0.047c-0.080 0-0.159 0.016-0.233 0.047s-0.141 0.076-0.197 0.133l-3.58 3.59c-0.24 0.23-0.24 0.61 0 0.85zM3.752 13.263l3.58 3.58c0.24 0.24 0.62 0.24 0.85 0l3.58-3.58c0.058-0.055 0.104-0.122 0.135-0.196s0.046-0.154 0.045-0.234h0.010c0-0.16-0.060-0.31-0.18-0.43l-3.58-3.58c-0.055-0.057-0.121-0.102-0.194-0.133s-0.151-0.047-0.231-0.047c-0.079 0-0.158 0.016-0.231 0.047s-0.139 0.076-0.194 0.133l-3.59 3.59c-0.24 0.23-0.24 0.61 0 0.85zM10.685 22.017l2.362 2.363 9.636-13.040-0.655-0.655-11.343 11.332z">
      </path>
    </symbol>
    <symbol id="icon-coin" viewBox="0 0 32 32">
      <path fill="#fd9222" style="fill: var(--color2, #fd9222)"
        d="M16 2.667c-7.333 0-13.333 6-13.333 13.333s6 13.333 13.333 13.333c7.333 0 13.333-6 13.333-13.333s-6-13.333-13.333-13.333zM16 26.667c-5.867 0-10.667-4.8-10.667-10.667s4.8-10.667 10.667-10.667c5.867 0 10.667 4.8 10.667 10.667s-4.8 10.667-10.667 10.667z">
      </path>
      <path fill="#fd9222" style="fill: var(--color2, #fd9222)"
        d="M17.733 14.667h-3.467c-0.667 0-1.2-0.533-1.2-1.2s0.533-1.2 1.2-1.2h4.933c0.8 0 1.333-0.533 1.333-1.333s-0.533-1.333-1.333-1.333h-1.867v-1.2c0-0.8-0.533-1.333-1.333-1.333s-1.333 0.533-1.333 1.333v1.2h-0.4c-2.133 0-3.867 1.733-3.867 3.867s1.733 3.867 3.867 3.867h3.333c0.667 0 1.2 0.533 1.2 1.2s-0.533 1.2-1.2 1.2h-4.933c-0.8 0-1.333 0.533-1.333 1.333s0.533 1.333 1.333 1.333h2v1.2c0 0.8 0.533 1.333 1.333 1.333s1.333-0.533 1.333-1.333v-1.2h0.4c2.133 0 3.867-1.733 3.867-3.867s-1.733-3.867-3.867-3.867z">
      </path>
    </symbol>
    <symbol id="icon-logo" viewBox="0 0 32 32">
      <path fill="#fcf1e0"
        d="M3.944 20.076 14.721 2.652l.64-.674 8.236 5.491.056 3.314 2.01 3.28-8.88 14.077-12.839-8.063z"
        style="fill:var(--color1, #fcf1e0)" />
      <path fill="none" stroke="#fd9222" stroke-linecap="round" stroke-linejoin="round" stroke-width="2.667"
        d="M21.635 23.88 7.45 15.016m3.911-6.417 14.185 8.864M10.63 25.864l11.736-19.25m4.81 8.175c-3.04-1.899-4.234-3.384-2.278-6.592l-9.626-6.015-11.736 19.25 14.186 8.864 9.454-15.507z"
        style="stroke:var(--color2, #fd9222)" />
    </symbol>
    <symbol id="icon-spoon" viewBox="0 0 32 32">
      <path fill="#fd9222" style="fill: var(--color2, #fd9222)"
        d="M15.452 14.106c-0.783-0.95-1.177-2.116-1.177-3.282 0-4.324 5.181-8.642 10.362-8.642 2.86 0 5.181 2.321 5.181 5.182 0 5.182-4.318 10.364-8.646 10.364-1.166 0-2.332-0.394-3.281-1.177l-12.758 12.761c-0.675 0.675-1.77 0.675-2.445 0s-0.675-1.771 0-2.445l12.764-12.761z">
      </path>
    </symbol>
    <symbol id="icon-instagram" viewBox="0 0 32 32">
      <path
        d="M9.404.096C11.11.017 11.654 0 16 0s4.89.019 6.595.096 2.868.349 3.887.743a7.88 7.88 0 0 1 2.833 1.847 7.803 7.803 0 0 1 1.844 2.832c.396 1.018.666 2.182.745 3.884.079 1.709.096 2.253.096 6.598 0 4.346-.019 4.89-.096 6.596-.077 1.702-.349 2.865-.745 3.884a7.85 7.85 0 0 1-1.844 2.835 7.832 7.832 0 0 1-2.833 1.844c-1.018.396-2.182.666-3.884.745C20.89 31.983 20.346 32 16 32s-4.89-.019-6.596-.096c-1.702-.077-2.865-.349-3.884-.745a7.85 7.85 0 0 1-2.835-1.844 7.846 7.846 0 0 1-1.846-2.833C.445 25.464.174 24.3.096 22.598.017 20.889 0 20.345 0 16c0-4.346.019-4.89.096-6.595s.349-2.868.743-3.887a7.854 7.854 0 0 1 1.847-2.833A7.843 7.843 0 0 1 5.518.839C6.536.445 7.7.174 9.402.096h.001zm13.061 2.88c-1.687-.077-2.193-.093-6.465-.093s-4.778.016-6.465.093c-1.561.071-2.407.332-2.972.551a4.972 4.972 0 0 0-1.84 1.196 4.966 4.966 0 0 0-1.196 1.84c-.22.564-.48 1.411-.551 2.972-.077 1.687-.093 2.193-.093 6.465s.016 4.778.093 6.465c.071 1.561.332 2.407.551 2.972a4.962 4.962 0 0 0 1.196 1.84c.516.531 1.146.94 1.84 1.196.564.22 1.411.48 2.972.551 1.687.077 2.192.093 6.465.093s4.778-.016 6.465-.093c1.561-.071 2.407-.332 2.972-.551a4.972 4.972 0 0 0 1.84-1.196 4.962 4.962 0 0 0 1.196-1.84c.22-.564.48-1.411.551-2.972.077-1.687.093-2.193.093-6.465s-.016-4.778-.093-6.465c-.071-1.561-.332-2.407-.551-2.972a4.972 4.972 0 0 0-1.196-1.84 4.974 4.974 0 0 0-1.84-1.196c-.564-.22-1.411-.48-2.972-.551zm-8.509 17.956a5.335 5.335 0 0 0 6.488-1.962 5.342 5.342 0 0 0-2.646-7.995 5.34 5.34 0 0 0-7.078 4.243 5.334 5.334 0 0 0 3.236 5.714zm-3.771-10.747A8.232 8.232 0 0 1 16 7.776a8.23 8.23 0 0 1 7.598 5.077 8.21 8.21 0 0 1 0 6.294 8.225 8.225 0 1 1-13.413-8.962zm15.863-1.184a1.958 1.958 0 0 0 .611-1.386 1.953 1.953 0 0 0-.569-1.403 1.948 1.948 0 0 0-1.403-.569 1.945 1.945 0 1 0 1.363 3.36z" />
    </symbol>
    <symbol id="icon-close" viewBox="0 0 32 32">
      <path
        d="M24 6.667c-0.001 0-0.002 0-0.003 0-0.367 0-0.7 0.149-0.941 0.389l-16 16c-0.242 0.241-0.392 0.575-0.392 0.944s0.15 0.703 0.392 0.944l0 0c0.241 0.242 0.575 0.392 0.944 0.392s0.703-0.15 0.944-0.392l16-16c0.242-0.241 0.392-0.575 0.392-0.944s-0.15-0.703-0.392-0.944l-0-0c-0.241-0.24-0.574-0.389-0.941-0.389-0.001 0-0.002 0-0.003 0h0z">
      </path>
      <path
        d="M8 6.667c-0.001 0-0.002 0-0.003 0-0.367 0-0.7 0.149-0.941 0.389l0-0c-0.242 0.241-0.392 0.575-0.392 0.944s0.15 0.703 0.392 0.944l16 16c0.241 0.242 0.575 0.392 0.944 0.392s0.703-0.15 0.944-0.392l0-0c0.242-0.241 0.392-0.575 0.392-0.944s-0.15-0.703-0.392-0.944l-16-16c-0.241-0.24-0.574-0.389-0.941-0.389-0.001 0-0.002 0-0.003 0h0z">
      </path>
    </symbol>
    <symbol id="icon-burger" viewBox="0 0 32 32">
      <path
        d="M4 14.667c-0.736 0-1.333 0.597-1.333 1.333v0c0 0.736 0.597 1.333 1.333 1.333v0h24c0.736 0 1.333-0.597 1.333-1.333v0c0-0.736-0.597-1.333-1.333-1.333v0z">
      </path>
      <path
        d="M4 6.667c-0.736 0-1.333 0.597-1.333 1.333v0c0 0.736 0.597 1.333 1.333 1.333v0h24c0.736 0 1.333-0.597 1.333-1.333v0c0-0.736-0.597-1.333-1.333-1.333v0z">
      </path>
      <path
        d="M4 22.667c-0.736 0-1.333 0.597-1.333 1.333v0c0 0.736 0.597 1.333 1.333 1.333v0h24c0.736 0 1.333-0.597 1.333-1.333v0c0-0.736-0.597-1.333-1.333-1.333v0z">
      </path>
    </symbol>
    <symbol id="icon-arrow" viewBox="0 0 32 32">
      <path
        d="M8.471 10.824c-0.001 0-0.002 0-0.003 0-0.389 0-0.741 0.157-0.997 0.412l0-0c-0.256 0.256-0.415 0.609-0.415 1s0.159 0.744 0.415 1l7.529 7.529c0.256 0.256 0.609 0.415 1 0.415s0.744-0.159 1-0.415l7.529-7.529c0.256-0.256 0.415-0.609 0.415-1s-0.159-0.744-0.415-1l-0-0c-0.256-0.257-0.609-0.415-1-0.415s-0.744 0.159-1 0.415l-6.529 6.529-6.529-6.529c-0.255-0.254-0.608-0.412-0.997-0.412-0.001 0-0.002 0-0.004 0h0z">
      </path>
    </symbol>
    <symbol id="icon-twitter-1" viewBox="0 0 32 32">
      <path stroke-linejoin="round" stroke-linecap="round" stroke-miterlimit="4" stroke-width="2.6667"
        d="M30.667 4c-1.2 0.856-2.591 1.552-4.084 2.013l-0.103 0.027c-1.101-1.261-2.712-2.053-4.507-2.053-3.299 0-5.973 2.674-5.973 5.973 0 0.028 0 0.056 0.001 0.084l-0-0.004v1.333c-0.11 0.003-0.239 0.005-0.368 0.005-4.79 0-9.027-2.37-11.602-6.001l-0.030-0.044s-5.333 12 6.667 17.333c-2.442 1.677-5.462 2.679-8.716 2.679-0.217 0-0.433-0.004-0.648-0.013l0.031 0.001c12 6.667 26.667 0 26.667-15.333-0.001-0.392-0.040-0.775-0.113-1.145l0.006 0.038c1.323-1.305 2.293-2.963 2.758-4.822l0.015-0.071z">
      </path>
    </symbol>
    <symbol id="icon-play" viewBox="0 0 32 32">
      <path
        d="M16 0c-8.837 0-16 7.163-16 16s7.163 16 16 16 16-7.163 16-16-7.163-16-16-16zM16 29c-7.18 0-13-5.82-13-13s5.82-13 13-13 13 5.82 13 13-5.82 13-13 13zM12 9l12 7-12 7z">
      </path>
    </symbol>
  </defs>
</svg>