<svg width="32" height="32" viewBox="0 0 32 32" fill="none" xmlns="http://www.w3.org/2000/svg">
<path d="M16.0001 2.66675C8.66675 2.66675 2.66675 8.66675 2.66675 16.0001C2.66675 23.3334 8.66675 29.3334 16.0001 29.3334C23.3334 29.3334 29.3334 23.3334 29.3334 16.0001C29.3334 8.66675 23.3334 2.66675 16.0001 2.66675ZM16.0001 26.6667C10.1334 26.6667 5.33341 21.8667 5.33341 16.0001C5.33341 10.1334 10.1334 5.33341 16.0001 5.33341C21.8667 5.33341 26.6667 10.1334 26.6667 16.0001C26.6667 21.8667 21.8667 26.6667 16.0001 26.6667Z" fill="#FD9222"/>
<path d="M17.7335 14.6667H14.2668C13.6001 14.6667 13.0668 14.1333 13.0668 13.4667C13.0668 12.8 13.6001 12.2667 14.2668 12.2667H19.2001C20.0001 12.2667 20.5335 11.7333 20.5335 10.9333C20.5335 10.1333 20.0001 9.59998 19.2001 9.59998H17.3335V8.39998C17.3335 7.59998 16.8001 7.06665 16.0001 7.06665C15.2001 7.06665 14.6668 7.59998 14.6668 8.39998V9.59998H14.2668C12.1335 9.59998 10.4001 11.3333 10.4001 13.4667C10.4001 15.6 12.1335 17.3333 14.2668 17.3333H17.6001C18.2668 17.3333 18.8001 17.8666 18.8001 18.5333C18.8001 19.2 18.2668 19.7333 17.6001 19.7333H12.6668C11.8668 19.7333 11.3335 20.2667 11.3335 21.0667C11.3335 21.8667 11.8668 22.4 12.6668 22.4H14.6668V23.6C14.6668 24.4 15.2001 24.9333 16.0001 24.9333C16.8001 24.9333 17.3335 24.4 17.3335 23.6V22.4H17.7335C19.8668 22.4 21.6001 20.6667 21.6001 18.5333C21.6001 16.4 19.8668 14.6667 17.7335 14.6667Z" fill="#FD9222"/>
</svg>
